<svg width="400" height="400" viewBox="0 0 400 400" fill="none" xmlns="http://www.w3.org/2000/svg">
<path fill-rule="evenodd" clip-rule="evenodd" d="M382.054 282.922C393.579 257.66 400 229.58 400 200C400 89.5431 310.457 0 200 0C89.5431 0 0 89.5431 0 200C0 229.65 6.45221 257.794 18.0292 283.103L185.99 115.142C193.8 107.332 206.464 107.332 214.274 115.142L382.054 282.922ZM363.85 314.718L214.274 165.142C206.464 157.332 193.8 157.332 185.99 165.142L36.2593 314.873C72.4438 366.355 132.293 400 200 400C267.775 400 327.676 366.288 363.85 314.718Z" fill="#FAFAFA"/>
</svg>
