<svg width="1541" height="400" viewBox="0 0 1541 400" fill="none" xmlns="http://www.w3.org/2000/svg">
<path fill-rule="evenodd" clip-rule="evenodd" d="M382.054 282.922C393.579 257.66 400 229.58 400 200C400 89.5431 310.457 0 200 0C89.5431 0 0 89.5431 0 200C0 229.65 6.45221 257.794 18.0292 283.103L185.99 115.142C193.8 107.332 206.464 107.332 214.274 115.142L382.054 282.922ZM363.85 314.718L214.274 165.142C206.464 157.332 193.8 157.332 185.99 165.142L36.2593 314.873C72.4438 366.355 132.293 400 200 400C267.775 400 327.676 366.288 363.85 314.718Z" fill="#111111"/>
<path d="M579.602 194.656V199.988C579.602 209.066 578.344 217.215 575.828 224.434C573.367 231.652 569.84 237.805 565.246 242.891C560.707 247.977 555.293 251.887 549.004 254.621C542.77 257.301 535.852 258.641 528.25 258.641C520.648 258.641 513.703 257.301 507.414 254.621C501.125 251.887 495.656 247.977 491.008 242.891C486.414 237.805 482.859 231.652 480.344 224.434C477.828 217.215 476.57 209.066 476.57 199.988V194.656C476.57 185.578 477.828 177.43 480.344 170.211C482.859 162.938 486.387 156.758 490.926 151.672C495.52 146.586 500.961 142.703 507.25 140.023C513.539 137.289 520.484 135.922 528.086 135.922C535.688 135.922 542.633 137.289 548.922 140.023C555.211 142.703 560.625 146.586 565.164 151.672C569.758 156.758 573.312 162.938 575.828 170.211C578.344 177.43 579.602 185.578 579.602 194.656ZM552.613 199.988V194.492C552.613 188.422 552.066 183.062 550.973 178.414C549.879 173.711 548.293 169.773 546.215 166.602C544.137 163.43 541.566 161.051 538.504 159.465C535.441 157.824 531.969 157.004 528.086 157.004C524.039 157.004 520.512 157.824 517.504 159.465C514.496 161.051 511.953 163.43 509.875 166.602C507.852 169.773 506.293 173.711 505.199 178.414C504.16 183.062 503.641 188.422 503.641 194.492V199.988C503.641 206.004 504.16 211.363 505.199 216.066C506.293 220.715 507.879 224.652 509.957 227.879C512.035 231.105 514.578 233.539 517.586 235.18C520.648 236.82 524.203 237.641 528.25 237.641C532.133 237.641 535.578 236.82 538.586 235.18C541.648 233.539 544.219 231.105 546.297 227.879C548.375 224.652 549.934 220.715 550.973 216.066C552.066 211.363 552.613 206.004 552.613 199.988ZM620.371 185.305V291.125H594.777V168.242H618.648L620.371 185.305ZM675.742 211.637V213.359C675.742 219.812 675.004 225.801 673.527 231.324C672.051 236.793 669.836 241.578 666.883 245.68C663.984 249.781 660.402 252.98 656.137 255.277C651.871 257.52 646.922 258.641 641.289 258.641C635.93 258.641 631.281 257.52 627.344 255.277C623.461 252.98 620.18 249.809 617.5 245.762C614.875 241.66 612.742 236.984 611.102 231.734C609.516 226.43 608.285 220.77 607.41 214.754V211.391C608.285 204.992 609.543 199.059 611.184 193.59C612.824 188.121 614.957 183.391 617.582 179.398C620.207 175.352 623.461 172.207 627.344 169.965C631.227 167.723 635.848 166.602 641.207 166.602C646.785 166.602 651.734 167.668 656.055 169.801C660.375 171.934 663.984 174.996 666.883 178.988C669.836 182.926 672.051 187.656 673.527 193.18C675.004 198.703 675.742 204.855 675.742 211.637ZM650.066 213.359V211.637C650.066 208.027 649.793 204.719 649.246 201.711C648.699 198.648 647.824 195.996 646.621 193.754C645.418 191.457 643.832 189.68 641.863 188.422C639.895 187.164 637.488 186.535 634.645 186.535C631.582 186.535 628.984 187.027 626.852 188.012C624.719 188.996 622.996 190.445 621.684 192.359C620.371 194.219 619.414 196.516 618.812 199.25C618.266 201.984 617.965 205.102 617.91 208.602V217.625C617.965 221.727 618.539 225.391 619.633 228.617C620.781 231.789 622.559 234.277 624.965 236.082C627.426 237.832 630.707 238.707 634.809 238.707C637.707 238.707 640.113 238.078 642.027 236.82C643.996 235.508 645.555 233.676 646.703 231.324C647.906 228.973 648.754 226.266 649.246 223.203C649.793 220.141 650.066 216.859 650.066 213.359ZM731.195 258.641C724.141 258.641 717.824 257.52 712.246 255.277C706.668 253.035 701.938 249.945 698.055 246.008C694.227 242.016 691.301 237.422 689.277 232.227C687.254 227.031 686.242 221.48 686.242 215.574V212.457C686.242 205.84 687.172 199.742 689.031 194.164C690.891 188.586 693.598 183.746 697.152 179.645C700.762 175.488 705.191 172.289 710.441 170.047C715.691 167.75 721.68 166.602 728.406 166.602C734.695 166.602 740.301 167.641 745.223 169.719C750.145 171.742 754.301 174.668 757.691 178.496C761.082 182.27 763.652 186.836 765.402 192.195C767.207 197.5 768.109 203.461 768.109 210.078V220.578H696.578V204.09H743.008V202.121C743.008 199.004 742.434 196.27 741.285 193.918C740.191 191.566 738.551 189.762 736.363 188.504C734.23 187.191 731.523 186.535 728.242 186.535C725.125 186.535 722.527 187.191 720.449 188.504C718.371 189.816 716.703 191.676 715.445 194.082C714.242 196.434 713.367 199.195 712.82 202.367C712.273 205.484 712 208.848 712 212.457V215.574C712 219.02 712.465 222.164 713.395 225.008C714.324 227.852 715.691 230.285 717.496 232.309C719.301 234.332 721.488 235.918 724.059 237.066C726.629 238.215 729.555 238.789 732.836 238.789C736.883 238.789 740.738 238.023 744.402 236.492C748.066 234.906 751.238 232.445 753.918 229.109L765.895 242.809C764.09 245.434 761.547 247.977 758.266 250.438C755.039 252.844 751.156 254.812 746.617 256.344C742.078 257.875 736.938 258.641 731.195 258.641ZM805.68 187.191V257H780.004V168.242H804.121L805.68 187.191ZM802.316 209.504L795.918 209.668C795.918 202.996 796.738 197.008 798.379 191.703C800.02 186.398 802.344 181.887 805.352 178.168C808.414 174.395 812.051 171.523 816.262 169.555C820.527 167.586 825.23 166.602 830.371 166.602C834.527 166.602 838.328 167.203 841.773 168.406C845.219 169.609 848.172 171.551 850.633 174.23C853.148 176.855 855.062 180.355 856.375 184.73C857.688 189.051 858.344 194.383 858.344 200.727V257H832.586V200.645C832.586 196.926 832.066 194.055 831.027 192.031C829.988 190.008 828.457 188.586 826.434 187.766C824.465 186.945 822.059 186.535 819.215 186.535C816.207 186.535 813.637 187.137 811.504 188.34C809.371 189.488 807.621 191.102 806.254 193.18C804.887 195.258 803.875 197.691 803.219 200.48C802.617 203.27 802.316 206.277 802.316 209.504ZM938.324 225.5C938.324 223.477 938.023 221.672 937.422 220.086C936.82 218.445 935.727 216.941 934.141 215.574C932.555 214.207 930.312 212.84 927.414 211.473C924.516 210.051 920.715 208.602 916.012 207.125C910.652 205.375 905.539 203.406 900.672 201.219C895.859 198.977 891.566 196.379 887.793 193.426C884.02 190.473 881.039 187.027 878.852 183.09C876.719 179.152 875.652 174.559 875.652 169.309C875.652 164.223 876.773 159.629 879.016 155.527C881.258 151.426 884.402 147.926 888.449 145.027C892.496 142.074 897.254 139.832 902.723 138.301C908.191 136.715 914.207 135.922 920.77 135.922C929.52 135.922 937.203 137.48 943.82 140.598C950.492 143.66 955.688 147.98 959.406 153.559C963.125 159.082 964.984 165.508 964.984 172.836H938.406C938.406 169.609 937.723 166.766 936.355 164.305C935.043 161.789 933.02 159.82 930.285 158.398C927.605 156.977 924.242 156.266 920.195 156.266C916.258 156.266 912.949 156.867 910.27 158.07C907.645 159.219 905.648 160.805 904.281 162.828C902.969 164.852 902.312 167.066 902.312 169.473C902.312 171.387 902.805 173.137 903.789 174.723C904.828 176.254 906.305 177.703 908.219 179.07C910.188 180.383 912.594 181.641 915.438 182.844C918.281 184.047 921.535 185.195 925.199 186.289C931.598 188.312 937.258 190.555 942.18 193.016C947.156 195.477 951.34 198.266 954.73 201.383C958.121 204.5 960.664 208.027 962.359 211.965C964.109 215.902 964.984 220.359 964.984 225.336C964.984 230.641 963.945 235.344 961.867 239.445C959.844 243.547 956.891 247.047 953.008 249.945C949.18 252.789 944.586 254.949 939.227 256.426C933.867 257.902 927.879 258.641 921.262 258.641C915.246 258.641 909.312 257.875 903.461 256.344C897.609 254.758 892.305 252.352 887.547 249.125C882.844 245.898 879.07 241.797 876.227 236.82C873.438 231.789 872.043 225.828 872.043 218.938H898.785C898.785 222.547 899.305 225.609 900.344 228.125C901.383 230.586 902.859 232.582 904.773 234.113C906.742 235.645 909.121 236.738 911.91 237.395C914.699 238.051 917.816 238.379 921.262 238.379C925.254 238.379 928.48 237.832 930.941 236.738C933.457 235.59 935.316 234.031 936.52 232.062C937.723 230.094 938.324 227.906 938.324 225.5ZM1016.5 238.707C1019.23 238.707 1021.61 238.188 1023.64 237.148C1025.66 236.109 1027.22 234.66 1028.31 232.801C1029.46 230.887 1030.04 228.59 1030.04 225.91H1054.15C1054.15 232.363 1052.48 238.051 1049.15 242.973C1045.87 247.895 1041.44 251.75 1035.86 254.539C1030.28 257.273 1023.99 258.641 1016.99 258.641C1010.1 258.641 1004.09 257.52 998.945 255.277C993.805 252.98 989.512 249.781 986.066 245.68C982.621 241.578 980.023 236.82 978.273 231.406C976.578 225.938 975.73 220.031 975.73 213.688V211.555C975.73 205.266 976.578 199.387 978.273 193.918C980.023 188.449 982.621 183.664 986.066 179.562C989.512 175.461 993.777 172.289 998.863 170.047C1004 167.75 1010.02 166.602 1016.91 166.602C1024.18 166.602 1030.61 167.996 1036.19 170.785C1041.82 173.574 1046.22 177.594 1049.39 182.844C1052.57 188.039 1054.15 194.301 1054.15 201.629H1030.04C1030.04 198.785 1029.52 196.242 1028.48 194C1027.49 191.703 1025.96 189.898 1023.88 188.586C1021.86 187.219 1019.34 186.535 1016.34 186.535C1013.22 186.535 1010.65 187.219 1008.62 188.586C1006.66 189.898 1005.15 191.73 1004.11 194.082C1003.07 196.434 1002.36 199.113 1001.98 202.121C1001.6 205.074 1001.41 208.219 1001.41 211.555V213.688C1001.41 217.078 1001.6 220.305 1001.98 223.367C1002.36 226.375 1003.07 229.027 1004.11 231.324C1005.21 233.621 1006.74 235.426 1008.71 236.738C1010.68 238.051 1013.27 238.707 1016.5 238.707ZM1091.89 131V257H1066.29V131H1091.89ZM1088.52 209.504L1082.12 209.668C1082.12 203.434 1082.89 197.719 1084.42 192.523C1086.01 187.273 1088.25 182.707 1091.15 178.824C1094.05 174.941 1097.52 171.934 1101.57 169.801C1105.67 167.668 1110.18 166.602 1115.1 166.602C1119.48 166.602 1123.47 167.23 1127.08 168.488C1130.69 169.746 1133.8 171.742 1136.43 174.477C1139.05 177.211 1141.08 180.793 1142.5 185.223C1143.92 189.652 1144.63 195.039 1144.63 201.383V257H1118.88V201.219C1118.88 197.445 1118.33 194.492 1117.23 192.359C1116.2 190.227 1114.66 188.723 1112.64 187.848C1110.67 186.973 1108.27 186.535 1105.42 186.535C1102.09 186.535 1099.32 187.137 1097.14 188.34C1094.95 189.488 1093.23 191.102 1091.97 193.18C1090.71 195.258 1089.81 197.691 1089.26 200.48C1088.77 203.27 1088.52 206.277 1088.52 209.504ZM1203.2 258.641C1196.15 258.641 1189.83 257.52 1184.25 255.277C1178.68 253.035 1173.95 249.945 1170.06 246.008C1166.23 242.016 1163.31 237.422 1161.29 232.227C1159.26 227.031 1158.25 221.48 1158.25 215.574V212.457C1158.25 205.84 1159.18 199.742 1161.04 194.164C1162.9 188.586 1165.61 183.746 1169.16 179.645C1172.77 175.488 1177.2 172.289 1182.45 170.047C1187.7 167.75 1193.69 166.602 1200.41 166.602C1206.7 166.602 1212.31 167.641 1217.23 169.719C1222.15 171.742 1226.31 174.668 1229.7 178.496C1233.09 182.27 1235.66 186.836 1237.41 192.195C1239.21 197.5 1240.12 203.461 1240.12 210.078V220.578H1168.59V204.09H1215.02V202.121C1215.02 199.004 1214.44 196.27 1213.29 193.918C1212.2 191.566 1210.56 189.762 1208.37 188.504C1206.24 187.191 1203.53 186.535 1200.25 186.535C1197.13 186.535 1194.54 187.191 1192.46 188.504C1190.38 189.816 1188.71 191.676 1187.45 194.082C1186.25 196.434 1185.38 199.195 1184.83 202.367C1184.28 205.484 1184.01 208.848 1184.01 212.457V215.574C1184.01 219.02 1184.47 222.164 1185.4 225.008C1186.33 227.852 1187.7 230.285 1189.5 232.309C1191.31 234.332 1193.5 235.918 1196.07 237.066C1198.64 238.215 1201.56 238.789 1204.84 238.789C1208.89 238.789 1212.75 238.023 1216.41 236.492C1220.07 234.906 1223.25 232.445 1225.93 229.109L1237.9 242.809C1236.1 245.434 1233.55 247.977 1230.27 250.438C1227.05 252.844 1223.16 254.812 1218.62 256.344C1214.09 257.875 1208.95 258.641 1203.2 258.641ZM1278.26 186.863V257H1252.67V168.242H1276.7L1278.26 186.863ZM1274.98 209.504L1268.5 209.668C1268.5 203.434 1269.24 197.719 1270.71 192.523C1272.25 187.273 1274.46 182.707 1277.36 178.824C1280.26 174.941 1283.84 171.934 1288.11 169.801C1292.43 167.668 1297.4 166.602 1303.04 166.602C1306.97 166.602 1310.55 167.203 1313.78 168.406C1317.01 169.555 1319.77 171.387 1322.07 173.902C1324.42 176.363 1326.22 179.59 1327.48 183.582C1328.74 187.52 1329.37 192.25 1329.37 197.773V257H1303.77V200.891C1303.77 196.953 1303.28 193.973 1302.3 191.949C1301.37 189.871 1300 188.449 1298.2 187.684C1296.39 186.918 1294.23 186.535 1291.71 186.535C1288.98 186.535 1286.55 187.137 1284.41 188.34C1282.34 189.488 1280.59 191.102 1279.16 193.18C1277.74 195.258 1276.68 197.691 1275.96 200.48C1275.31 203.27 1274.98 206.277 1274.98 209.504ZM1326.74 208.191L1318.62 208.848C1318.62 202.832 1319.33 197.254 1320.75 192.113C1322.18 186.973 1324.31 182.516 1327.15 178.742C1330 174.914 1333.52 171.934 1337.73 169.801C1342 167.668 1346.95 166.602 1352.58 166.602C1356.74 166.602 1360.51 167.203 1363.9 168.406C1367.35 169.609 1370.3 171.551 1372.76 174.23C1375.28 176.91 1377.22 180.438 1378.59 184.812C1379.95 189.133 1380.64 194.438 1380.64 200.727V257H1354.88V200.727C1354.88 196.844 1354.39 193.891 1353.4 191.867C1352.47 189.844 1351.11 188.449 1349.3 187.684C1347.55 186.918 1345.45 186.535 1342.98 186.535C1340.25 186.535 1337.87 187.109 1335.85 188.258C1333.82 189.352 1332.13 190.883 1330.76 192.852C1329.39 194.766 1328.38 197.035 1327.73 199.66C1327.07 202.285 1326.74 205.129 1326.74 208.191ZM1444.79 235.836V197.773C1444.79 195.094 1444.38 192.797 1443.55 190.883C1442.73 188.969 1441.45 187.465 1439.7 186.371C1437.95 185.277 1435.68 184.73 1432.89 184.73C1430.54 184.73 1428.49 185.141 1426.74 185.961C1425.04 186.781 1423.73 187.957 1422.8 189.488C1421.93 191.02 1421.49 192.906 1421.49 195.148H1395.89C1395.89 191.156 1396.8 187.438 1398.6 183.992C1400.41 180.547 1402.98 177.512 1406.31 174.887C1409.7 172.262 1413.75 170.238 1418.45 168.816C1423.16 167.34 1428.43 166.602 1434.29 166.602C1441.23 166.602 1447.41 167.777 1452.82 170.129C1458.29 172.426 1462.61 175.898 1465.79 180.547C1468.96 185.141 1470.54 190.938 1470.54 197.938V235.098C1470.54 240.457 1470.84 244.668 1471.45 247.73C1472.1 250.738 1473.03 253.363 1474.23 255.605V257H1448.39C1447.19 254.43 1446.29 251.258 1445.69 247.484C1445.09 243.656 1444.79 239.773 1444.79 235.836ZM1447.98 202.859L1448.15 216.969H1435.43C1432.59 216.969 1430.13 217.324 1428.05 218.035C1426.03 218.746 1424.39 219.73 1423.13 220.988C1421.87 222.191 1420.94 223.613 1420.34 225.254C1419.79 226.84 1419.52 228.59 1419.52 230.504C1419.52 232.309 1419.96 233.949 1420.83 235.426C1421.71 236.848 1422.91 237.969 1424.44 238.789C1425.97 239.609 1427.75 240.02 1429.77 240.02C1433.11 240.02 1435.95 239.363 1438.3 238.051C1440.71 236.738 1442.57 235.152 1443.88 233.293C1445.2 231.379 1445.85 229.602 1445.85 227.961L1452 238.625C1451.02 240.812 1449.82 243.082 1448.39 245.434C1446.97 247.73 1445.17 249.891 1442.98 251.914C1440.79 253.883 1438.14 255.496 1435.02 256.754C1431.96 258.012 1428.27 258.641 1423.95 258.641C1418.37 258.641 1413.31 257.52 1408.77 255.277C1404.23 252.98 1400.6 249.836 1397.86 245.844C1395.18 241.852 1393.84 237.258 1393.84 232.062C1393.84 227.414 1394.69 223.285 1396.39 219.676C1398.08 216.066 1400.62 213.004 1404.02 210.488C1407.46 207.973 1411.78 206.086 1416.98 204.828C1422.17 203.516 1428.24 202.859 1435.19 202.859H1447.98Z" fill="#111111"/>
</svg>
